<svg width="79" height="54" viewBox="0 0 79 54" fill="none" xmlns="http://www.w3.org/2000/svg">
<rect width="73" height="48" transform="translate(3)" fill="white"/>
<rect x="4" y="1" width="71" height="19" rx="2" fill="black"/>
<g filter="url(#filter0_d_15_9)">
<rect x="4" y="21" width="71" height="25" rx="2" fill="white"/>
<rect x="4.5" y="21.5" width="70" height="24" rx="1.5" stroke="black"/>
</g>
<path d="M39.5 4.25C49.0145 4.25 57.6207 5.089 63.8418 6.44141C66.9544 7.11806 69.457 7.91983 71.1748 8.80273C72.034 9.24434 72.6845 9.70045 73.1172 10.1602C73.5486 10.6186 73.75 11.0657 73.75 11.5C73.75 11.9343 73.5486 12.3814 73.1172 12.8398C72.6845 13.2995 72.034 13.7557 71.1748 14.1973C69.457 15.0802 66.9544 15.8819 63.8418 16.5586C57.6207 17.911 49.0145 18.75 39.5 18.75C29.9855 18.75 21.3793 17.911 15.1582 16.5586C12.0456 15.8819 9.543 15.0802 7.8252 14.1973C6.96601 13.7557 6.31553 13.2995 5.88281 12.8398C5.45135 12.3814 5.25 11.9343 5.25 11.5C5.25 11.0657 5.45135 10.6186 5.88281 10.1602C6.31553 9.70045 6.96601 9.24434 7.8252 8.80273C9.543 7.91983 12.0456 7.11806 15.1582 6.44141C21.3793 5.089 29.9855 4.25 39.5 4.25Z" fill="#FF0000" stroke="white" stroke-width="0.5"/>
<path d="M16.4121 26.12H16.5821L17.3721 28.86L16.2221 33H14.2221L16.4121 26.12ZM18.6621 31.78H16.9921L17.4121 30.24H18.2121L17.0321 26.12H18.8621L21.0521 33H19.0121L18.6621 31.78ZM21.7174 26.12H23.7174V33H21.7174V26.12ZM24.1374 31.47H24.5474C24.734 31.47 24.874 31.4667 24.9674 31.46C25.0674 31.4467 25.1407 31.42 25.1874 31.38C25.234 31.34 25.264 31.2833 25.2774 31.21C25.2974 31.1367 25.3074 31.03 25.3074 30.89C25.3074 30.7433 25.2974 30.6333 25.2774 30.56C25.264 30.4867 25.234 30.43 25.1874 30.39C25.1074 30.3233 24.894 30.29 24.5474 30.29H24.1374V28.76H24.4874C24.674 28.76 24.814 28.7567 24.9074 28.75C25.0074 28.7367 25.0807 28.71 25.1274 28.67C25.174 28.63 25.204 28.5767 25.2174 28.51C25.2374 28.4367 25.2474 28.3367 25.2474 28.21C25.2474 28.0767 25.2374 27.9767 25.2174 27.91C25.204 27.8367 25.174 27.78 25.1274 27.74C25.0807 27.7 25.0074 27.6767 24.9074 27.67C24.814 27.6567 24.674 27.65 24.4874 27.65H24.1374V26.12H25.2774C26.6174 26.12 27.2874 26.6967 27.2874 27.85C27.2874 28.3367 27.1907 28.7033 26.9974 28.95C26.8107 29.1967 26.5107 29.37 26.0974 29.47V29.51C26.5307 29.61 26.8407 29.7667 27.0274 29.98C27.2407 30.2333 27.3474 30.6267 27.3474 31.16C27.3474 31.7733 27.184 32.2333 26.8574 32.54C26.5307 32.8467 26.0074 33 25.2874 33H24.1374V31.47ZM33.1566 27.7C32.9366 27.6733 32.5499 27.6367 31.9966 27.59C31.6899 27.5767 31.4433 27.57 31.2566 27.57C31.0166 27.57 30.7899 27.5767 30.5766 27.59V26.04H30.8266C31.3733 26.04 31.9399 26.0767 32.5266 26.15C32.7133 26.1767 32.9233 26.2133 33.1566 26.26V27.7ZM31.5066 30.97C31.5066 30.83 31.4966 30.73 31.4766 30.67C31.4566 30.6033 31.4233 30.56 31.3766 30.54C31.3299 30.5133 31.2499 30.4933 31.1366 30.48L29.9066 30.33C29.1799 30.25 28.6899 30.0133 28.4366 29.62C28.3233 29.4533 28.2466 29.25 28.2066 29.01C28.1666 28.77 28.1466 28.4767 28.1466 28.13C28.1466 27.39 28.3366 26.8567 28.7166 26.53C29.0233 26.2633 29.5033 26.1067 30.1566 26.06V28.07C30.1566 28.1567 30.1599 28.23 30.1666 28.29C30.1733 28.35 30.1866 28.3967 30.2066 28.43C30.2266 28.47 30.2599 28.5 30.3066 28.52C30.3533 28.5333 30.4233 28.5433 30.5166 28.55L31.8966 28.72C32.1833 28.76 32.4166 28.81 32.5966 28.87C32.7766 28.93 32.9299 29.0233 33.0566 29.15C33.3566 29.4633 33.5066 30.02 33.5066 30.82C33.5066 31.6667 33.3199 32.26 32.9466 32.6C32.7799 32.7533 32.5766 32.8667 32.3366 32.94C32.1033 33.0067 31.8266 33.05 31.5066 33.07V30.97ZM30.9766 33.08C30.3099 33.08 29.6899 33.05 29.1166 32.99C28.7766 32.9567 28.5199 32.9233 28.3466 32.89V31.43C28.7399 31.4633 29.1899 31.4967 29.6966 31.53C30.0166 31.5433 30.2433 31.55 30.3766 31.55C30.7366 31.55 30.9733 31.54 31.0866 31.52V33.08H30.9766ZM33.9796 26.12H39.6096V27.72H33.9796V26.12ZM35.7896 28.12H37.7896V33H35.7896V28.12ZM40.3502 26.12H42.3502V33H40.3502V26.12ZM43.1702 30.66H42.7702V29.13H43.1102C43.3169 29.13 43.4735 29.1233 43.5802 29.11C43.6869 29.09 43.7702 29.0567 43.8302 29.01C43.8835 28.9633 43.9202 28.8933 43.9402 28.8C43.9602 28.7067 43.9702 28.57 43.9702 28.39C43.9702 28.21 43.9602 28.0733 43.9402 27.98C43.9202 27.88 43.8835 27.8067 43.8302 27.76C43.7769 27.7133 43.6969 27.6833 43.5902 27.67C43.4902 27.6567 43.3302 27.65 43.1102 27.65H42.7702V26.12H43.8002C44.2735 26.12 44.6569 26.1667 44.9502 26.26C45.2435 26.3533 45.4702 26.4967 45.6302 26.69C45.7769 26.87 45.8735 27.0933 45.9202 27.36C45.9735 27.6267 46.0002 27.97 46.0002 28.39C46.0002 28.93 45.9502 29.3467 45.8502 29.64C45.7102 30.0133 45.4635 30.2767 45.1102 30.43L46.1502 33H44.0502L43.1702 30.66ZM48.6485 26.12H48.8185L49.6085 28.86L48.4585 33H46.4585L48.6485 26.12ZM50.8985 31.78H49.2285L49.6485 30.24H50.4485L49.2685 26.12H51.0985L53.2885 33H51.2485L50.8985 31.78ZM56.2337 26.05C56.287 26.0433 56.3704 26.04 56.4837 26.04H56.7437C57.1904 26.04 57.627 26.0733 58.0537 26.14C58.2737 26.1733 58.4437 26.2067 58.5637 26.24V27.67C58.4637 27.6633 58.297 27.6467 58.0637 27.62C57.7504 27.5867 57.477 27.57 57.2437 27.57C56.9837 27.57 56.7737 27.58 56.6137 27.6C56.4604 27.6133 56.3337 27.64 56.2337 27.68V26.05ZM56.7437 33.08C56.077 33.08 55.547 33.0233 55.1537 32.91C54.767 32.79 54.4737 32.5933 54.2737 32.32C54.0804 32.06 53.947 31.7167 53.8737 31.29C53.807 30.8567 53.7737 30.28 53.7737 29.56C53.7737 28.9267 53.797 28.4133 53.8437 28.02C53.897 27.6267 53.9904 27.2967 54.1237 27.03C54.2637 26.7567 54.467 26.5467 54.7337 26.4C55.007 26.2467 55.367 26.1433 55.8137 26.09V29.56C55.8137 29.9333 55.8204 30.2933 55.8337 30.64C55.847 30.9067 55.897 31.1067 55.9837 31.24C56.077 31.3733 56.2204 31.4567 56.4137 31.49C56.6004 31.53 56.877 31.55 57.2437 31.55C57.6237 31.55 57.947 31.5333 58.2137 31.5C58.3204 31.4933 58.4504 31.4767 58.6037 31.45V32.9C58.277 32.9733 57.907 33.0233 57.4937 33.05C57.267 33.07 57.017 33.08 56.7437 33.08ZM59.0773 26.12H64.7073V27.72H59.0773V26.12ZM60.8873 28.12H62.8873V33H60.8873V28.12ZM26.7678 36.12H32.0378V37.54L31.9578 37.65H26.7678V36.12ZM26.6578 41.53L29.2378 38.05H31.6578L27.9778 43H26.6578V41.53ZM29.6378 41.47H32.0378V43H28.4978L29.6378 41.47ZM36.9095 39.56C36.9095 38.98 36.9061 38.6 36.8995 38.42C36.8861 38.1467 36.8495 37.95 36.7895 37.83C36.7295 37.7033 36.6328 37.6267 36.4995 37.6C36.3661 37.58 36.1761 37.57 35.9295 37.57C35.6428 37.57 35.4561 37.5833 35.3695 37.61V36.05C35.4295 36.0433 35.5195 36.04 35.6395 36.04H35.9295C36.6761 36.04 37.2528 36.1 37.6595 36.22C38.0728 36.3333 38.3728 36.5233 38.5595 36.79C38.7328 37.0367 38.8395 37.36 38.8795 37.76C38.9261 38.16 38.9495 38.76 38.9495 39.56C38.9495 40.26 38.9328 40.8 38.8995 41.18C38.8728 41.5533 38.7995 41.8633 38.6795 42.11C38.5461 42.39 38.3395 42.6033 38.0595 42.75C37.7861 42.8967 37.4028 42.9933 36.9095 43.04V39.56ZM35.9295 43.08C34.9561 43.08 34.2561 42.9733 33.8295 42.76C33.6095 42.6533 33.4361 42.51 33.3095 42.33C33.1828 42.15 33.0895 41.9267 33.0295 41.66C32.9761 41.4267 32.9428 41.16 32.9295 40.86C32.9161 40.5533 32.9095 40.12 32.9095 39.56C32.9095 38.86 32.9228 38.3233 32.9495 37.95C32.9828 37.5767 33.0595 37.2633 33.1795 37.01C33.3128 36.7367 33.5161 36.5267 33.7895 36.38C34.0628 36.2333 34.4495 36.1333 34.9495 36.08V39.56C34.9495 39.9533 34.9561 40.33 34.9695 40.69C34.9828 40.9633 35.0161 41.1633 35.0695 41.29C35.1295 41.4167 35.2261 41.49 35.3595 41.51C35.4728 41.5367 35.6628 41.55 35.9295 41.55C36.2028 41.55 36.3895 41.54 36.4895 41.52V43.07C36.4295 43.0767 36.3395 43.08 36.2195 43.08H35.9295ZM40.0719 36.4V36.12H42.0719L45.9319 42.71V43H43.9419L40.0719 36.4ZM44.0319 38.63V36.12H45.9319V41.88L44.0319 38.63ZM40.0719 37.23L41.9719 40.48V43H40.0719V37.23ZM47.2301 36.12H49.2301V43H47.2301V36.12ZM49.6501 36.12H52.1901V37.65H49.6501V36.12ZM49.6501 38.76H51.7201V40.29H49.6501V38.76ZM49.6501 41.47H52.1901V43H49.6501V41.47Z" fill="black"/>
<path d="M22.3749 13.768C22.3375 13.6187 22.2895 13.4107 22.2309 13.144L22.0149 12.264L21.7749 11.256L21.1269 8.496H22.7189L23.8549 14H22.4309L22.3749 13.768ZM23.6309 11.248L24.2309 8.496H25.8709L27.1829 14H25.8149L25.7509 13.736L25.5829 13.04L25.3429 12.024C25.2415 11.6133 25.1455 11.2107 25.0549 10.816H25.0069L24.7349 12.024L24.6469 12.432C24.6202 12.544 24.5935 12.6507 24.5669 12.752C24.5455 12.8533 24.5242 12.9493 24.5029 13.04L24.3429 13.736L24.2789 14H24.1909L23.6309 11.248ZM26.8629 11.2L27.3429 8.496H28.9349L28.2789 11.256L28.0389 12.264C27.9375 12.6747 27.8682 12.968 27.8309 13.144L27.6789 13.768L27.6229 14H27.5269L26.8629 11.2ZM30.4633 8.496H30.5993L31.2313 10.688L30.3113 14H28.7113L30.4633 8.496ZM32.2633 13.024H30.9273L31.2633 11.792H31.9033L30.9593 8.496H32.4233L34.1753 14H32.5433L32.2633 13.024ZM34.7075 8.496H36.3075V14H34.7075V8.496ZM36.9635 12.128H36.6435V10.904H36.9155C37.0808 10.904 37.2062 10.8987 37.2915 10.888C37.3768 10.872 37.4435 10.8453 37.4915 10.808C37.5342 10.7707 37.5635 10.7147 37.5795 10.64C37.5955 10.5653 37.6035 10.456 37.6035 10.312C37.6035 10.168 37.5955 10.0587 37.5795 9.984C37.5635 9.904 37.5342 9.84533 37.4915 9.808C37.4488 9.77067 37.3848 9.74667 37.2995 9.736C37.2195 9.72533 37.0915 9.72 36.9155 9.72H36.6435V8.496H37.4675C37.8462 8.496 38.1528 8.53333 38.3875 8.608C38.6222 8.68267 38.8035 8.79733 38.9315 8.952C39.0488 9.096 39.1262 9.27467 39.1635 9.488C39.2062 9.70133 39.2275 9.976 39.2275 10.312C39.2275 10.744 39.1875 11.0773 39.1075 11.312C38.9955 11.6107 38.7982 11.8213 38.5155 11.944L39.3475 14H37.6675L36.9635 12.128ZM40.0981 8.72V8.496H41.6981L44.7861 13.768V14H43.1941L40.0981 8.72ZM43.2661 10.504V8.496H44.7861V13.104L43.2661 10.504ZM40.0981 9.384L41.6181 11.984V14H40.0981V9.384ZM45.8247 8.496H47.4247V14H45.8247V8.496ZM48.4653 8.72V8.496H50.0653L53.1533 13.768V14H51.5613L48.4653 8.72ZM51.6333 10.504V8.496H53.1533V13.104L51.6333 10.504ZM48.4653 9.384L49.9853 11.984V14H48.4653V9.384ZM56.0159 8.448C56.2292 8.43733 56.4052 8.432 56.5439 8.432C57.0239 8.432 57.4639 8.464 57.8639 8.528C58.0665 8.54933 58.2612 8.58133 58.4479 8.624V9.768C58.2239 9.74667 58.0559 9.728 57.9439 9.712C57.8532 9.70667 57.7065 9.69333 57.5039 9.672C57.3012 9.66133 57.1679 9.656 57.1039 9.656C56.7785 9.656 56.5385 9.664 56.3839 9.68C56.2345 9.69067 56.1119 9.72267 56.0159 9.776V8.448ZM56.5439 14.064C56.0105 14.064 55.5839 14.024 55.2639 13.944C54.9492 13.864 54.7039 13.7227 54.5279 13.52C54.3519 13.3173 54.2265 13.0373 54.1519 12.68C54.0825 12.3227 54.0479 11.8453 54.0479 11.248C54.0479 10.7413 54.0719 10.3253 54.1199 10C54.1679 9.67467 54.2505 9.408 54.3679 9.2C54.4905 8.98667 54.6559 8.824 54.8639 8.712C55.0719 8.6 55.3439 8.52267 55.6799 8.48V11.248C55.6799 11.6267 55.6905 11.9173 55.7119 12.12C55.7332 12.3173 55.7732 12.4693 55.8319 12.576C55.8959 12.688 55.9865 12.7653 56.1039 12.808C56.2265 12.8507 56.3999 12.872 56.6239 12.872V14.064H56.5439ZM56.9599 11.888H56.3919V10.728H58.4719V13.864C58.2212 13.9227 57.9092 13.968 57.5359 14C57.3545 14.0267 57.1625 14.0427 56.9599 14.048V11.888Z" fill="white"/>
<defs>
<filter id="filter0_d_15_9" x="0" y="21" width="79" height="33" filterUnits="userSpaceOnUse" color-interpolation-filters="sRGB">
<feFlood flood-opacity="0" result="BackgroundImageFix"/>
<feColorMatrix in="SourceAlpha" type="matrix" values="0 0 0 0 0 0 0 0 0 0 0 0 0 0 0 0 0 0 127 0" result="hardAlpha"/>
<feOffset dy="4"/>
<feGaussianBlur stdDeviation="2"/>
<feComposite in2="hardAlpha" operator="out"/>
<feColorMatrix type="matrix" values="0 0 0 0 0 0 0 0 0 0 0 0 0 0 0 0 0 0 0.25 0"/>
<feBlend mode="normal" in2="BackgroundImageFix" result="effect1_dropShadow_15_9"/>
<feBlend mode="normal" in="SourceGraphic" in2="effect1_dropShadow_15_9" result="shape"/>
</filter>
</defs>
</svg>
